<mxfile host="app.diagrams.net" modified="2023-09-20T01:51:05.096Z" agent="Mozilla/5.0 (Windows NT 10.0; Win64; x64) AppleWebKit/537.36 (KHTML, like Gecko) Chrome/116.0.0.0 Safari/537.36 Edg/116.0.1938.81" etag="NRYRF6s955vtjfn7HEQ7" version="21.7.5" type="github">
  <diagram name="第 1 页" id="GLBUFm1eimjBt50DSfU4">
    <mxGraphModel dx="878" dy="549" grid="0" gridSize="10" guides="1" tooltips="1" connect="1" arrows="1" fold="1" page="1" pageScale="1" pageWidth="827" pageHeight="1169" math="0" shadow="0">
      <root>
        <mxCell id="0" />
        <mxCell id="1" parent="0" />
        <mxCell id="QJzKOVn87CD8k5MhZJz0-1" value="&lt;font style=&quot;font-size: 24px;&quot;&gt;中国政府网&lt;/font&gt;" style="rounded=0;whiteSpace=wrap;html=1;fillColor=#dae8fc;strokeColor=#6c8ebf;" vertex="1" parent="1">
          <mxGeometry x="170" y="40" width="380" height="60" as="geometry" />
        </mxCell>
        <mxCell id="QJzKOVn87CD8k5MhZJz0-2" value="&lt;font color=&quot;#ff0000&quot; style=&quot;font-size: 17px;&quot;&gt;公共访问层&lt;/font&gt;" style="text;html=1;align=center;verticalAlign=middle;resizable=0;points=[];autosize=1;strokeColor=none;fillColor=none;strokeWidth=0;" vertex="1" parent="1">
          <mxGeometry x="40" y="55" width="110" height="30" as="geometry" />
        </mxCell>
        <mxCell id="QJzKOVn87CD8k5MhZJz0-3" value="&lt;font color=&quot;#ff0000&quot; style=&quot;font-size: 18px;&quot;&gt;&lt;b&gt;一站&lt;/b&gt;&lt;/font&gt;" style="text;html=1;align=center;verticalAlign=middle;resizable=0;points=[];autosize=1;strokeColor=none;fillColor=none;" vertex="1" parent="1">
          <mxGeometry x="570" y="50" width="60" height="40" as="geometry" />
        </mxCell>
        <mxCell id="QJzKOVn87CD8k5MhZJz0-4" value="" style="endArrow=none;dashed=1;html=1;rounded=0;" edge="1" parent="1">
          <mxGeometry width="50" height="50" relative="1" as="geometry">
            <mxPoint x="40" y="120" as="sourcePoint" />
            <mxPoint x="640" y="120" as="targetPoint" />
          </mxGeometry>
        </mxCell>
        <mxCell id="QJzKOVn87CD8k5MhZJz0-5" value="宏观经济管理" style="rounded=0;whiteSpace=wrap;html=1;fillColor=#ffe6cc;strokeColor=#d79b00;" vertex="1" parent="1">
          <mxGeometry x="168" y="130" width="80" height="40" as="geometry" />
        </mxCell>
        <mxCell id="QJzKOVn87CD8k5MhZJz0-6" value="金盾" style="rounded=0;whiteSpace=wrap;html=1;fillColor=#ffe6cc;strokeColor=#d79b00;" vertex="1" parent="1">
          <mxGeometry x="168" y="190" width="80" height="40" as="geometry" />
        </mxCell>
        <mxCell id="QJzKOVn87CD8k5MhZJz0-7" value="金保" style="rounded=0;whiteSpace=wrap;html=1;fillColor=#ffe6cc;strokeColor=#d79b00;" vertex="1" parent="1">
          <mxGeometry x="168" y="250" width="80" height="40" as="geometry" />
        </mxCell>
        <mxCell id="QJzKOVn87CD8k5MhZJz0-8" value="办公业务资源" style="rounded=0;whiteSpace=wrap;html=1;fillColor=#ffe6cc;strokeColor=#d79b00;" vertex="1" parent="1">
          <mxGeometry x="268" y="130" width="80" height="40" as="geometry" />
        </mxCell>
        <mxCell id="QJzKOVn87CD8k5MhZJz0-9" value="金审" style="rounded=0;whiteSpace=wrap;html=1;fillColor=#ffe6cc;strokeColor=#d79b00;" vertex="1" parent="1">
          <mxGeometry x="268" y="190" width="80" height="40" as="geometry" />
        </mxCell>
        <mxCell id="QJzKOVn87CD8k5MhZJz0-10" value="金农" style="rounded=0;whiteSpace=wrap;html=1;fillColor=#ffe6cc;strokeColor=#d79b00;" vertex="1" parent="1">
          <mxGeometry x="268" y="250" width="80" height="40" as="geometry" />
        </mxCell>
        <mxCell id="QJzKOVn87CD8k5MhZJz0-11" value="金税" style="rounded=0;whiteSpace=wrap;html=1;fillColor=#ffe6cc;strokeColor=#d79b00;" vertex="1" parent="1">
          <mxGeometry x="368" y="130" width="80" height="40" as="geometry" />
        </mxCell>
        <mxCell id="QJzKOVn87CD8k5MhZJz0-12" value="金融监管" style="rounded=0;whiteSpace=wrap;html=1;fillColor=#ffe6cc;strokeColor=#d79b00;" vertex="1" parent="1">
          <mxGeometry x="368" y="190" width="80" height="40" as="geometry" />
        </mxCell>
        <mxCell id="QJzKOVn87CD8k5MhZJz0-13" value="金水" style="rounded=0;whiteSpace=wrap;html=1;fillColor=#ffe6cc;strokeColor=#d79b00;" vertex="1" parent="1">
          <mxGeometry x="368" y="250" width="80" height="40" as="geometry" />
        </mxCell>
        <mxCell id="QJzKOVn87CD8k5MhZJz0-17" value="金关" style="rounded=0;whiteSpace=wrap;html=1;fillColor=#ffe6cc;strokeColor=#d79b00;" vertex="1" parent="1">
          <mxGeometry x="468" y="130" width="80" height="40" as="geometry" />
        </mxCell>
        <mxCell id="QJzKOVn87CD8k5MhZJz0-18" value="金财" style="rounded=0;whiteSpace=wrap;html=1;fillColor=#ffe6cc;strokeColor=#d79b00;" vertex="1" parent="1">
          <mxGeometry x="468" y="190" width="80" height="40" as="geometry" />
        </mxCell>
        <mxCell id="QJzKOVn87CD8k5MhZJz0-19" value="金质" style="rounded=0;whiteSpace=wrap;html=1;" vertex="1" parent="1">
          <mxGeometry x="468" y="250" width="80" height="40" as="geometry" />
        </mxCell>
        <mxCell id="QJzKOVn87CD8k5MhZJz0-20" value="" style="endArrow=none;dashed=1;html=1;rounded=0;" edge="1" parent="1">
          <mxGeometry width="50" height="50" relative="1" as="geometry">
            <mxPoint x="40" y="308" as="sourcePoint" />
            <mxPoint x="640" y="308" as="targetPoint" />
          </mxGeometry>
        </mxCell>
        <mxCell id="QJzKOVn87CD8k5MhZJz0-21" value="&lt;font color=&quot;#ff0000&quot; style=&quot;font-size: 18px;&quot;&gt;&lt;b&gt;十二金&lt;/b&gt;&lt;/font&gt;" style="text;html=1;align=center;verticalAlign=middle;resizable=0;points=[];autosize=1;strokeColor=none;fillColor=none;" vertex="1" parent="1">
          <mxGeometry x="570" y="190" width="80" height="40" as="geometry" />
        </mxCell>
        <mxCell id="QJzKOVn87CD8k5MhZJz0-22" value="&lt;font color=&quot;#ff0000&quot; style=&quot;font-size: 17px;&quot;&gt;应用系统层&lt;/font&gt;" style="text;html=1;align=center;verticalAlign=middle;resizable=0;points=[];autosize=1;strokeColor=none;fillColor=none;strokeWidth=0;" vertex="1" parent="1">
          <mxGeometry x="40" y="195" width="110" height="30" as="geometry" />
        </mxCell>
        <mxCell id="QJzKOVn87CD8k5MhZJz0-23" value="资源地理&lt;br&gt;基础信息库" style="shape=cylinder3;whiteSpace=wrap;html=1;boundedLbl=1;backgroundOutline=1;size=15;fillColor=#dae8fc;strokeColor=#6c8ebf;" vertex="1" parent="1">
          <mxGeometry x="178" y="330" width="60" height="80" as="geometry" />
        </mxCell>
        <mxCell id="QJzKOVn87CD8k5MhZJz0-25" value="法人单位信息基础库" style="shape=cylinder3;whiteSpace=wrap;html=1;boundedLbl=1;backgroundOutline=1;size=15;fillColor=#dae8fc;strokeColor=#6c8ebf;" vertex="1" parent="1">
          <mxGeometry x="278" y="330" width="60" height="80" as="geometry" />
        </mxCell>
        <mxCell id="QJzKOVn87CD8k5MhZJz0-26" value="人口基础信息库" style="shape=cylinder3;whiteSpace=wrap;html=1;boundedLbl=1;backgroundOutline=1;size=15;fillColor=#dae8fc;strokeColor=#6c8ebf;" vertex="1" parent="1">
          <mxGeometry x="378" y="330" width="60" height="80" as="geometry" />
        </mxCell>
        <mxCell id="QJzKOVn87CD8k5MhZJz0-27" value="宏观经济基础库" style="shape=cylinder3;whiteSpace=wrap;html=1;boundedLbl=1;backgroundOutline=1;size=15;fillColor=#dae8fc;strokeColor=#6c8ebf;" vertex="1" parent="1">
          <mxGeometry x="478" y="330" width="60" height="80" as="geometry" />
        </mxCell>
        <mxCell id="QJzKOVn87CD8k5MhZJz0-28" value="&lt;font color=&quot;#ff0000&quot; style=&quot;font-size: 17px;&quot;&gt;数据资源访问层&lt;/font&gt;" style="text;html=1;align=center;verticalAlign=middle;resizable=0;points=[];autosize=1;strokeColor=none;fillColor=none;strokeWidth=0;" vertex="1" parent="1">
          <mxGeometry x="25" y="355" width="140" height="30" as="geometry" />
        </mxCell>
        <mxCell id="QJzKOVn87CD8k5MhZJz0-29" value="&lt;font color=&quot;#ff0000&quot; style=&quot;font-size: 18px;&quot;&gt;&lt;b&gt;四库&lt;/b&gt;&lt;/font&gt;" style="text;html=1;align=center;verticalAlign=middle;resizable=0;points=[];autosize=1;strokeColor=none;fillColor=none;" vertex="1" parent="1">
          <mxGeometry x="570" y="345" width="60" height="40" as="geometry" />
        </mxCell>
        <mxCell id="QJzKOVn87CD8k5MhZJz0-30" value="" style="endArrow=none;dashed=1;html=1;rounded=0;" edge="1" parent="1">
          <mxGeometry width="50" height="50" relative="1" as="geometry">
            <mxPoint x="40" y="430" as="sourcePoint" />
            <mxPoint x="640" y="430" as="targetPoint" />
          </mxGeometry>
        </mxCell>
        <mxCell id="QJzKOVn87CD8k5MhZJz0-31" value="金关" style="rounded=0;whiteSpace=wrap;html=1;fillColor=#ffe6cc;strokeColor=#d79b00;" vertex="1" parent="1">
          <mxGeometry x="468" y="250" width="80" height="40" as="geometry" />
        </mxCell>
        <mxCell id="QJzKOVn87CD8k5MhZJz0-34" value="政务内网" style="rounded=0;whiteSpace=wrap;html=1;fillColor=#d5e8d4;strokeColor=#82b366;" vertex="1" parent="1">
          <mxGeometry x="168" y="460" width="152" height="60" as="geometry" />
        </mxCell>
        <mxCell id="QJzKOVn87CD8k5MhZJz0-37" value="政务外网" style="rounded=0;whiteSpace=wrap;html=1;fillColor=#d5e8d4;strokeColor=#82b366;" vertex="1" parent="1">
          <mxGeometry x="386" y="460" width="152" height="60" as="geometry" />
        </mxCell>
        <mxCell id="QJzKOVn87CD8k5MhZJz0-38" value="&lt;font color=&quot;#ff0000&quot;&gt;&lt;span style=&quot;font-size: 17px;&quot;&gt;网络平台层&lt;/span&gt;&lt;/font&gt;" style="text;html=1;align=center;verticalAlign=middle;resizable=0;points=[];autosize=1;strokeColor=none;fillColor=none;strokeWidth=0;" vertex="1" parent="1">
          <mxGeometry x="35" y="470" width="110" height="30" as="geometry" />
        </mxCell>
        <mxCell id="QJzKOVn87CD8k5MhZJz0-39" value="&lt;font color=&quot;#ff0000&quot; style=&quot;font-size: 18px;&quot;&gt;&lt;b&gt;两网&lt;/b&gt;&lt;/font&gt;" style="text;html=1;align=center;verticalAlign=middle;resizable=0;points=[];autosize=1;strokeColor=none;fillColor=none;" vertex="1" parent="1">
          <mxGeometry x="580" y="470" width="60" height="40" as="geometry" />
        </mxCell>
      </root>
    </mxGraphModel>
  </diagram>
</mxfile>
